<?xml version="1.0" standalone="no"?>
<!DOCTYPE svg PUBLIC "-//W3C//DTD SVG 20010904//EN"
 "http://www.w3.org/TR/2001/REC-SVG-20010904/DTD/svg10.dtd">
<svg version="1.0" xmlns="http://www.w3.org/2000/svg"
 width="330.000000pt" height="254.000000pt" viewBox="0 0 330.000000 254.000000"
 preserveAspectRatio="xMidYMid meet">

<g transform="translate(0.000000,254.000000) scale(0.100000,-0.100000)"
fill="#000000" stroke="none">
<path d="M1279 2360 c-200 -35 -340 -108 -462 -240 -103 -111 -173 -243 -225
-425 -22 -77 -26 -110 -26 -230 -1 -162 14 -235 74 -360 45 -93 119 -180 192
-225 28 -17 112 -52 186 -76 157 -53 267 -104 321 -151 124 -106 105 -284 -52
-493 -32 -41 -57 -78 -57 -82 0 -4 13 -3 30 2 76 22 259 32 362 21 57 -7 110
-14 119 -17 14 -4 16 8 16 88 0 147 41 221 148 270 53 24 127 28 322 17 75 -4
83 -2 107 20 29 27 34 66 15 120 -15 43 -5 73 32 94 28 16 31 21 25 52 -4 21
-2 42 6 54 9 15 9 28 0 57 -14 48 1 75 57 103 75 39 69 69 -30 178 -117 127
-116 124 -122 343 -5 211 -22 298 -87 435 -35 76 -118 200 -128 191 -2 -3 12
-31 33 -64 49 -80 75 -168 75 -253 0 -103 -14 -148 -96 -316 -41 -83 -78 -168
-81 -188 -7 -45 11 -82 52 -102 80 -41 105 -95 65 -146 -33 -42 -79 -51 -145
-31 -60 19 -99 13 -119 -19 -9 -14 -5 -28 17 -68 54 -95 17 -133 -127 -134
-84 0 -95 -3 -148 -33 -71 -40 -109 -41 -137 -6 -12 15 -21 38 -21 52 0 68
169 272 289 350 197 128 279 260 289 463 7 153 -35 260 -136 350 -155 136
-380 146 -535 23 -32 -25 -57 -48 -54 -50 2 -2 30 11 61 30 120 72 275 85 394
31 235 -105 280 -426 94 -670 -21 -27 -78 -81 -127 -118 -122 -92 -205 -176
-272 -275 -31 -45 -60 -82 -64 -82 -4 0 -20 21 -35 47 -40 69 -204 234 -311
315 -51 38 -105 86 -121 106 -123 156 -134 402 -25 564 64 95 189 167 294 169
l44 0 -40 15 c-116 44 -296 -50 -372 -193 -64 -120 -78 -241 -43 -377 38 -149
94 -224 266 -352 117 -88 170 -141 235 -236 42 -62 49 -102 21 -117 -23 -12
-331 67 -419 109 -148 69 -253 238 -284 459 -36 253 87 594 279 773 57 53 143
111 210 140 74 33 228 67 326 73 50 2 98 5 106 6 10 0 9 3 -4 8 -27 10 -201
11 -257 1z"/>
<path d="M515 2070 c-3 -5 -1 -10 4 -10 6 0 11 5 11 10 0 6 -2 10 -4 10 -3 0
-8 -4 -11 -10z"/>
<path d="M1200 1966 c0 -2 7 -9 15 -16 12 -10 15 -10 15 4 0 9 -7 16 -15 16
-8 0 -15 -2 -15 -4z"/>
<path d="M1139 1953 c-9 -2 -22 -16 -28 -30 -6 -14 -14 -23 -18 -20 -3 4 0 13
7 22 13 16 10 18 -14 9 -9 -3 -13 -10 -10 -15 3 -5 -3 -9 -13 -9 -12 0 -14 -3
-6 -8 12 -8 13 -76 1 -88 -13 -12 -24 6 -22 35 1 22 -2 28 -12 24 -9 -3 -11
-9 -5 -17 4 -6 5 -20 0 -31 -4 -11 -8 -17 -10 -12 -5 21 -7 28 -8 39 0 6 -8 3
-16 -8 -12 -17 -12 -20 0 -30 17 -12 20 -44 5 -44 -5 0 -13 7 -18 16 -6 11
-11 13 -16 5 -4 -6 -2 -11 3 -11 6 0 11 -7 11 -15 0 -8 -4 -15 -10 -15 -5 0
-10 5 -10 12 0 6 -3 9 -6 5 -3 -3 -2 -12 2 -19 14 -22 13 -38 -2 -38 -9 0 -12
5 -8 12 4 6 3 8 -3 5 -16 -10 -9 -62 8 -60 10 2 14 -9 15 -40 2 -34 0 -37 -6
-17 -9 28 -13 19 -10 -24 1 -15 -2 -26 -8 -23 -11 7 -10 -33 1 -51 5 -7 14 -9
20 -5 8 4 7 1 -1 -9 -10 -13 -10 -18 -1 -24 8 -5 9 -3 4 7 -8 12 -6 12 9 0 12
-10 14 -17 6 -25 -15 -15 -12 -26 9 -26 10 0 22 -7 25 -15 5 -14 8 -14 30 0
19 13 25 13 30 3 3 -7 3 0 -1 15 -10 49 -8 62 7 62 22 0 19 -94 -4 -107 -11
-6 -22 -6 -30 1 -9 7 -16 7 -24 -1 -9 -9 -12 -8 -12 4 0 9 -7 19 -16 22 -15 6
-15 4 -1 -16 8 -13 22 -22 31 -22 14 2 15 -1 4 -15 -7 -9 -8 -13 -4 -9 5 4 15
0 22 -10 12 -16 13 -15 14 6 0 12 5 22 11 22 7 0 9 -9 6 -21 -4 -14 -1 -19 7
-16 6 3 12 -3 12 -14 0 -14 -3 -15 -13 -7 -10 8 -12 7 -7 -5 3 -8 12 -18 20
-21 9 -3 12 -1 9 4 -3 6 -2 10 3 10 6 0 9 7 8 16 0 9 5 18 12 20 7 1 8 0 2 -3
-18 -9 -10 -24 10 -18 19 6 69 -21 70 -37 0 -14 -22 -8 -34 8 -7 9 -18 12 -29
8 -17 -6 -16 -8 4 -30 12 -13 27 -24 33 -24 6 0 4 5 -4 10 -8 5 -10 10 -5 10
6 0 16 -4 24 -9 11 -7 10 -11 -5 -21 -18 -11 -18 -11 0 -6 13 5 17 2 13 -8 -4
-10 -1 -13 10 -9 8 3 19 0 25 -8 7 -11 11 -11 15 -1 7 17 26 15 19 -3 -3 -9 0
-15 9 -15 10 0 15 -10 15 -30 0 -20 5 -30 15 -30 9 0 18 -7 21 -15 9 -24 24
-17 24 10 0 18 -5 25 -20 25 -15 0 -19 6 -18 24 2 23 28 27 28 4 0 -5 12 -1
28 10 25 18 30 19 55 6 15 -8 27 -19 27 -24 0 -11 -29 -40 -40 -40 -5 0 -7 -7
-4 -15 3 -8 15 -13 27 -12 24 2 29 -23 14 -58 -8 -18 -7 -18 12 3 12 12 20 26
17 31 -3 5 4 21 16 37 13 15 17 25 10 20 -8 -4 -12 -1 -12 9 0 12 8 16 28 14
15 -2 36 2 47 9 11 6 15 12 8 12 -6 0 -9 9 -6 20 3 12 13 20 22 19 38 -3 43 1
20 20 l-23 19 24 25 c23 24 40 27 40 6 0 -5 -7 -9 -16 -9 -10 0 -12 -4 -7 -12
4 -7 8 -16 8 -20 0 -21 15 -17 15 5 0 16 6 27 14 27 8 0 17 7 20 16 3 8 2 13
-3 10 -10 -7 -57 32 -48 40 3 4 25 -9 49 -27 23 -19 38 -28 33 -20 -6 11 -4
13 9 8 9 -4 15 -3 12 2 -6 9 22 37 33 34 3 0 5 3 4 7 -2 5 7 12 18 15 19 6 19
8 4 24 -10 12 -25 17 -43 14 l-27 -4 25 13 c20 11 27 12 38 1 16 -15 26 -17
17 -3 -3 6 2 13 12 17 10 4 27 15 38 26 14 13 15 16 4 12 -17 -6 -46 21 -35
33 4 4 11 7 14 7 19 0 51 34 57 60 5 23 4 26 -4 15 -17 -24 -14 85 3 119 9 16
11 33 6 41 -5 8 -6 18 -4 22 3 4 0 8 -5 8 -6 0 -11 -14 -11 -32 0 -29 -1 -30
-13 -13 -11 14 -16 15 -22 5 -6 -10 -12 -7 -25 10 -17 22 -16 24 3 46 27 31
28 72 3 90 -27 18 -32 10 -13 -20 15 -23 13 -36 -5 -36 -5 0 -6 4 -3 10 3 5 1
19 -5 30 -9 17 -14 18 -31 7 -15 -9 -21 -9 -27 0 -4 6 -21 13 -37 16 -25 3
-23 4 11 6 23 0 47 8 54 16 8 9 9 15 2 15 -6 0 -14 -4 -17 -10 -17 -28 -113 1
-107 33 4 21 -21 23 -38 2 -7 -8 -19 -15 -26 -15 -8 0 -11 6 -8 15 8 19 -10
19 -30 0 -8 -9 -19 -15 -23 -14 -28 5 -53 -2 -47 -13 5 -7 2 -9 -8 -6 -22 9
-78 -28 -78 -51 0 -10 7 -24 15 -31 8 -7 12 -16 9 -21 -8 -14 -24 -10 -24 6 0
8 -7 15 -15 15 -8 0 -15 -8 -15 -17 0 -14 -2 -15 -9 -4 -7 12 -13 12 -40 0
-17 -8 -31 -17 -31 -21 0 -5 -7 -8 -16 -8 -8 0 -12 -5 -9 -11 4 -6 13 -8 21
-5 8 3 14 1 14 -4 0 -6 -10 -10 -23 -10 -25 0 -34 28 -13 43 13 9 -10 27 -36
27 -21 0 -23 -11 -6 -28 9 -9 9 -12 -1 -12 -8 0 -11 -6 -7 -15 5 -13 2 -14
-15 -5 -11 6 -24 22 -29 36 -11 29 -30 31 -37 4 -5 -19 -23 -29 -23 -12 1 15
28 42 43 42 9 0 19 11 23 25 5 20 9 23 25 15 10 -6 16 -17 13 -25 -4 -8 -2
-15 4 -15 9 0 9 20 2 40 -5 12 3 46 13 60 9 12 9 13 -3 3 -18 -17 -38 -17 -22
-1 18 18 14 27 -10 21 -19 -4 -20 -3 -8 6 13 9 12 11 -5 10 -11 -1 -27 -3 -36
-6z m395 -65 c6 -4 7 -10 3 -14 -4 -5 -18 3 -30 15 -12 13 -16 21 -9 17 7 -4
12 -2 13 6 0 9 2 8 6 -2 3 -8 11 -18 17 -22z m75 11 c-7 -4 -17 -5 -22 -2 -5
3 -3 9 4 14 7 4 17 5 22 2 5 -3 3 -9 -4 -14z m46 -9 c-3 -5 -11 -10 -16 -10
-6 0 -7 5 -4 10 3 6 11 10 16 10 6 0 7 -4 4 -10z m-225 -45 c0 -8 -2 -15 -4
-15 -2 0 -6 7 -10 15 -3 8 -1 15 4 15 6 0 10 -7 10 -15z m70 5 c0 -5 -7 -10
-15 -10 -8 0 -15 5 -15 10 0 6 7 10 15 10 8 0 15 -4 15 -10z m24 -40 c-4 -19
-2 -30 5 -30 15 0 14 -27 -2 -33 -21 -8 -47 18 -47 47 0 19 5 26 20 26 11 0
20 5 20 10 0 6 2 10 5 10 2 0 2 -13 -1 -30z m156 -30 c0 -23 -6 -24 -43 -7
-37 17 -34 27 8 27 28 0 35 -4 35 -20z m-353 -16 c-9 -9 -28 6 -21 18 4 6 10
6 17 -1 6 -6 8 -13 4 -17z m433 16 c0 -5 -7 -10 -16 -10 -8 0 -12 5 -9 10 3 6
10 10 16 10 5 0 9 -4 9 -10z m-615 -30 c3 -5 -1 -10 -9 -10 -9 0 -16 5 -16 10
0 6 4 10 9 10 6 0 13 -4 16 -10z m215 0 c0 -5 -2 -10 -4 -10 -3 0 -8 5 -11 10
-3 6 -1 10 4 10 6 0 11 -4 11 -10z m30 0 c0 -5 -4 -10 -10 -10 -5 0 -10 5 -10
10 0 6 5 10 10 10 6 0 10 -4 10 -10z m40 0 c0 -5 -4 -10 -10 -10 -5 0 -10 5
-10 10 0 6 5 10 10 10 6 0 10 -4 10 -10z m-475 -60 c3 -6 -1 -7 -9 -4 -18 7
-21 14 -7 14 6 0 13 -4 16 -10z m902 -102 c-3 -8 -6 -5 -6 6 -1 11 2 17 5 13
3 -3 4 -12 1 -19z m-29 -39 c-9 -6 -7 -9 10 -9 22 0 28 -10 15 -23 -3 -4 -14
0 -24 9 -15 13 -16 20 -6 42 10 21 13 23 15 8 2 -10 -2 -22 -10 -27z m-848 15
c0 -9 -8 -23 -17 -30 -24 -18 -30 -17 -30 1 0 9 6 14 13 11 7 -3 15 2 18 10 4
10 2 12 -6 8 -7 -4 -8 -3 -4 4 11 17 26 15 26 -4z m60 2 c0 -8 -4 -18 -10 -21
-5 -3 -10 -1 -10 4 0 6 -8 11 -17 12 -15 0 -15 2 2 9 29 12 35 12 35 -4z m740
-56 c0 -5 -4 -10 -10 -10 -5 0 -10 5 -10 10 0 6 5 10 10 10 6 0 10 -4 10 -10z
m-655 -130 c3 -6 -4 -10 -17 -10 -18 0 -20 2 -8 10 19 12 18 12 25 0z m647
-23 c-7 -8 -10 -17 -7 -21 3 -3 0 -2 -7 3 -8 8 -8 14 2 26 7 8 15 13 18 10 3
-2 0 -11 -6 -18z m-62 -18 c12 -8 10 -9 -9 -4 -17 5 -22 4 -16 -5 5 -9 4 -11
-4 -6 -6 4 -9 12 -6 17 8 12 16 11 35 -2z m-515 -10 c11 -17 0 -20 -21 -4 -17
13 -17 14 -2 15 9 0 20 -5 23 -11z m540 -9 c-3 -5 -12 -10 -18 -10 -7 0 -6 4
3 10 19 12 23 12 15 0z m-423 -74 c7 4 8 2 4 -5 -4 -6 -11 -9 -16 -6 -4 3 -11
-1 -14 -7 -2 -7 -3 -2 -1 12 5 35 7 37 12 17 2 -9 9 -14 15 -11z m235 8 c-3
-3 -12 -4 -19 -1 -8 3 -5 6 6 6 11 1 17 -2 13 -5z m-41 -28 c10 -22 9 -23 -29
-24 l-40 -2 23 25 c29 31 32 31 46 1z m-137 -5 c7 -5 11 -14 7 -19 -9 -15 -36
-4 -36 14 0 16 9 18 29 5z m180 -45 c9 -11 9 -16 0 -22 -7 -4 -9 -3 -5 4 3 6
-2 15 -11 21 -10 6 -13 11 -7 11 6 0 17 -6 23 -14z"/>
<path d="M1660 1928 c0 -4 7 -8 16 -8 9 0 13 -5 9 -12 -4 -7 0 -5 9 6 14 17
42 14 31 -5 -3 -5 1 -6 9 -3 9 3 16 10 16 16 0 5 -4 7 -9 3 -5 -3 -12 -1 -15
4 -8 12 -66 11 -66 -1z"/>
<path d="M1355 1850 c-3 -5 -1 -10 4 -10 6 0 11 5 11 10 0 6 -2 10 -4 10 -3 0
-8 -4 -11 -10z"/>
<path d="M1855 1831 c-3 -5 -2 -12 3 -15 5 -3 9 1 9 9 0 17 -3 19 -12 6z"/>
<path d="M1850 1789 c0 -6 6 -9 14 -6 8 3 17 1 20 -6 2 -7 5 -4 5 6 1 11 -6
17 -19 17 -11 0 -20 -5 -20 -11z"/>
<path d="M1836 1755 c-3 -8 -1 -15 4 -15 6 0 10 7 10 15 0 8 -2 15 -4 15 -2 0
-6 -7 -10 -15z"/>
<path d="M1861 1754 c0 -11 3 -14 6 -6 3 7 2 16 -1 19 -3 4 -6 -2 -5 -13z"/>
<path d="M345 1659 c-10 -15 3 -25 16 -12 7 7 7 13 1 17 -6 3 -14 1 -17 -5z"/>
<path d="M1896 1645 c4 -8 8 -15 10 -15 2 0 4 7 4 15 0 8 -4 15 -10 15 -5 0
-7 -7 -4 -15z"/>
<path d="M325 1560 c-3 -5 -1 -10 4 -10 6 0 11 5 11 10 0 6 -2 10 -4 10 -3 0
-8 -4 -11 -10z"/>
<path d="M321 1494 c0 -11 3 -14 6 -6 3 7 2 16 -1 19 -3 4 -6 -2 -5 -13z"/>
<path d="M1850 1485 c-20 -24 -6 -28 15 -5 10 11 13 20 8 20 -6 0 -16 -7 -23
-15z"/>
<path d="M1060 1480 c0 -5 5 -10 10 -10 6 0 10 5 10 10 0 6 -4 10 -10 10 -5 0
-10 -4 -10 -10z"/>
<path d="M335 1302 c-14 -10 -17 -39 -5 -47 6 -4 7 1 3 11 -4 11 -3 15 5 10 7
-4 10 1 9 14 -1 11 -1 20 -2 20 0 0 -4 -4 -10 -8z"/>
<path d="M1602 1251 c4 -13 18 -16 19 -4 0 4 -5 9 -11 12 -7 2 -11 -2 -8 -8z"/>
<path d="M345 1211 c-3 -5 -1 -12 5 -16 5 -3 10 1 10 9 0 18 -6 21 -15 7z"/>
<path d="M1251 1154 c12 -13 24 -24 25 -24 5 0 0 40 -6 41 -3 0 -13 2 -24 4
-16 3 -15 1 5 -21z"/>
<path d="M1373 1173 c-25 -9 -12 -19 27 -21 23 -2 40 2 40 8 0 5 -3 11 -7 11
-27 5 -50 5 -60 2z"/>
<path d="M365 1128 c2 -14 8 -35 14 -46 6 -11 8 -22 6 -26 -3 -3 -2 -4 2 -1 3
3 12 0 20 -7 11 -8 12 -7 7 6 -3 9 -10 16 -16 16 -5 0 -7 4 -3 9 3 5 -3 17
-12 27 -10 10 -17 19 -15 21 2 2 1 9 -2 16 -3 6 -3 0 -1 -15z"/>
<path d="M1365 1085 c2 -20 0 -35 -6 -35 -6 0 -8 4 -4 9 3 5 0 13 -6 16 -18
12 -19 0 -2 -24 14 -21 17 -21 25 -7 12 22 31 21 20 -1 -10 -22 -10 -43 1 -43
4 0 11 0 17 0 5 0 9 10 7 23 -1 14 3 21 11 19 8 -1 11 2 7 8 -4 6 -1 17 5 25
8 9 8 15 2 15 -6 0 -13 -6 -15 -12 -4 -10 -8 -10 -15 1 -5 7 -15 10 -21 7 -10
-6 -15 6 -12 27 0 4 -3 7 -9 7 -5 0 -8 -15 -5 -35z"/>
<path d="M405 1021 c-6 -11 13 -26 22 -17 4 3 1 6 -6 6 -7 0 -9 5 -6 10 3 6 4
10 1 10 -3 0 -7 -4 -11 -9z"/>
<path d="M443 955 c0 -9 10 -27 23 -40 12 -13 18 -25 12 -27 -6 -2 -3 -9 5
-16 12 -10 17 -10 23 -1 5 8 3 9 -6 4 -10 -6 -12 -4 -7 8 3 9 0 20 -8 24 -8 5
-16 19 -18 33 -4 27 -24 39 -24 15z"/>
<path d="M520 820 c0 -5 7 -10 16 -10 8 0 12 5 9 10 -3 6 -10 10 -16 10 -5 0
-9 -4 -9 -10z"/>
<path d="M556 802 c-3 -5 1 -9 9 -9 8 0 12 4 9 9 -3 4 -7 8 -9 8 -2 0 -6 -4
-9 -8z"/>
<path d="M586 765 c4 -8 10 -15 16 -15 5 0 6 -4 3 -10 -3 -5 1 -10 11 -10 13
0 14 3 5 13 -6 8 -7 18 -3 22 4 5 1 5 -5 1 -7 -4 -13 -2 -13 3 0 6 -4 11 -10
11 -5 0 -7 -7 -4 -15z"/>
<path d="M655 710 c3 -5 11 -10 16 -10 6 0 7 5 4 10 -3 6 -11 10 -16 10 -6 0
-7 -4 -4 -10z"/>
<path d="M690 691 c0 -22 51 -43 71 -29 12 8 11 9 -2 5 -8 -3 -21 3 -27 14
-12 19 -42 26 -42 10z"/>
<path d="M771 639 c18 -11 39 -11 39 0 0 5 -12 9 -26 9 -18 0 -22 -3 -13 -9z"/>
<path d="M830 630 c-9 -6 -10 -10 -3 -10 6 0 15 5 18 10 8 12 4 12 -15 0z"/>
<path d="M899 607 c6 -8 29 -19 51 -26 22 -6 40 -16 40 -22 0 -6 5 -7 10 -4 6
3 10 1 10 -4 0 -6 10 -11 23 -10 15 0 4 9 -38 30 -33 16 -66 29 -72 29 -7 0
-13 5 -13 10 0 6 -5 10 -11 10 -8 0 -8 -4 0 -13z"/>
<path d="M1134 439 c-3 -6 -1 -16 4 -21 8 -8 11 -5 9 11 -1 24 -3 25 -13 10z"/>
</g>
</svg>
